<?xml version="1.0" encoding="utf-8"?>
<!-- Generator: Adobe Illustrator 26.0.1, SVG Export Plug-In . SVG Version: 6.00 Build 0)  -->
<svg version="1.1" id="Layer_1" xmlns="http://www.w3.org/2000/svg" xmlns:xlink="http://www.w3.org/1999/xlink" x="0px" y="0px"
	 viewBox="0 0 962.24 310.2" style="enable-background:new 0 0 962.24 310.2;" xml:space="preserve">
<style type="text/css">
	.st0{fill:#FFFFFF;}
</style>
<g>
	<g>
		<path class="st0" d="M240.35,112.17c-5.1,0-9.18,2.21-12.23,6.62c-1.95,2.75-3.18,6.85-3.71,12.3h31.63
			c-0.63-6.77-2.3-11.61-5.01-14.54C248.33,113.64,244.76,112.17,240.35,112.17z"/>
		<path class="st0" d="M492.23,9.12H23.56c-10.22,0-18.5,8.28-18.5,18.5v177.29c0,10.22,8.28,18.5,18.5,18.5h333.86v-126h30.06
			v13.51c4.15-5.68,7.97-9.52,11.44-11.53c4.68-2.69,9.86-4.04,15.54-4.04c11.2,0,19.87,4.68,25.99,14.02
			c6.13,9.35,9.19,20.9,9.19,34.67c0,15.2-3.34,26.8-10.02,34.8c-6.68,8-15.12,12-25.32,12c-4.95,0-9.46-0.92-13.53-2.76
			c-4.08-1.83-7.72-4.56-10.93-8.17v43.51h0.01l58.58,80.17v-80.17h43.79c10.22,0,22.5-8.28,22.5-18.5V27.62
			C514.73,17.4,502.45,9.12,492.23,9.12z M174.08,184.86h-35.89v-51.01H99.13v51.01H63.4V58.75h35.74v44.13h39.05V58.75h35.89
			V184.86z M288.7,147.87h-64.37c0.58,5.62,1.97,9.81,4.18,12.56c3.1,3.96,7.15,5.93,12.15,5.93c3.16,0,6.15-0.86,8.99-2.58
			c1.74-1.09,3.6-3.01,5.6-5.76l31.64,3.18c-4.84,9.18-10.68,15.76-17.51,19.74c-6.84,3.99-16.65,5.98-29.43,5.98
			c-11.1,0-19.83-1.71-26.19-5.12c-6.36-3.41-11.64-8.83-15.82-16.26c-4.18-7.43-6.27-16.16-6.27-26.19
			c0-14.28,4.19-25.83,12.58-34.67c8.39-8.83,19.97-13.25,34.75-13.25c11.99,0,21.46,1.98,28.4,5.94
			c6.94,3.96,12.23,9.69,15.86,17.2c3.63,7.51,5.44,17.29,5.44,29.33V147.87z M336.75,184.86h-32.19V58.75h32.19V184.86z"/>
		<path class="st0" d="M404.36,164.68c3.73,0,6.86-1.68,9.39-5.03c2.52-3.35,3.79-9.05,3.79-17.07c0-7.4-1.31-12.83-3.94-16.3
			c-2.63-3.47-5.84-5.2-9.62-5.2c-4.1,0-7.52,1.75-10.26,5.25c-2.74,3.5-4.1,9.17-4.1,17.03c0,7.23,1.39,12.59,4.18,16.08
			C396.57,162.93,400.1,164.68,404.36,164.68z"/>
	</g>
	<g>
		<path class="st0" d="M533.04,61.04h53.09c10.47,0,18.92,1.55,25.36,4.65c6.44,3.1,11.77,7.54,15.98,13.33
			c4.21,5.79,7.26,12.53,9.15,20.22c1.89,7.69,2.84,15.83,2.84,24.43c0,13.48-1.41,23.93-4.22,31.36
			c-2.81,7.43-6.72,13.65-11.72,18.67c-5,5.02-10.36,8.36-16.09,10.02c-7.84,2.29-14.94,3.44-21.3,3.44h-53.09V61.04z M568.77,89.6
			v68.9h8.76c7.47,0,12.78-0.9,15.94-2.71s5.63-4.96,7.42-9.46c1.79-4.5,2.68-11.8,2.68-21.89c0-13.36-2-22.51-6-27.44
			c-4-4.93-10.62-7.4-19.88-7.4H568.77z"/>
		<path class="st0" d="M749.11,150.16h-64.37c0.58,5.62,1.97,9.81,4.18,12.56c3.1,3.96,7.15,5.94,12.15,5.94
			c3.16,0,6.15-0.86,8.99-2.58c1.74-1.09,3.6-3.01,5.6-5.76l31.63,3.18c-4.84,9.18-10.68,15.76-17.51,19.74
			c-6.84,3.99-16.65,5.98-29.43,5.98c-11.1,0-19.83-1.71-26.19-5.12c-6.36-3.41-11.64-8.83-15.82-16.26
			c-4.18-7.43-6.27-16.16-6.27-26.19c0-14.28,4.19-25.83,12.58-34.67c8.39-8.83,19.97-13.25,34.75-13.25
			c11.99,0,21.46,1.98,28.4,5.94s12.23,9.69,15.86,17.21s5.44,17.29,5.44,29.33V150.16z M716.45,133.38
			c-0.63-6.77-2.3-11.61-5.01-14.54c-2.71-2.92-6.27-4.39-10.69-4.39c-5.1,0-9.18,2.21-12.23,6.62c-1.95,2.75-3.18,6.85-3.71,12.3
			H716.45z"/>
		<path class="st0" d="M758.19,161.77l31.87-3.27c1.31,4.13,3.16,7.08,5.52,8.86c2.37,1.78,5.52,2.67,9.47,2.67
			c4.31,0,7.65-1,10.02-3.01c1.84-1.49,2.76-3.35,2.76-5.58c0-2.52-1.21-4.47-3.63-5.84c-1.74-0.97-6.34-2.17-13.81-3.61
			c-11.15-2.12-18.89-4.08-23.23-5.89c-4.34-1.8-8-4.86-10.97-9.15c-2.97-4.3-4.46-9.2-4.46-14.7c0-6.02,1.6-11.2,4.81-15.56
			c3.21-4.35,7.62-7.6,13.25-9.75c5.63-2.15,13.17-3.22,22.64-3.22c9.99,0,17.37,0.83,22.13,2.5c4.76,1.66,8.73,4.24,11.91,7.74
			c3.18,3.5,5.82,8.23,7.93,14.19l-30.45,3.27c-0.79-2.92-2.1-5.08-3.95-6.45c-2.52-1.83-5.58-2.75-9.15-2.75
			c-3.63,0-6.27,0.7-7.93,2.1c-1.66,1.4-2.49,3.11-2.49,5.11c0,2.23,1.05,3.92,3.16,5.07c2.1,1.15,6.68,2.18,13.73,3.09
			c10.68,1.32,18.62,3.15,23.82,5.5c5.21,2.35,9.19,5.7,11.95,10.05c2.76,4.36,4.14,9.14,4.14,14.35c0,5.27-1.46,10.4-4.38,15.38
			c-2.92,4.98-7.52,8.95-13.81,11.9c-6.29,2.95-14.85,4.42-25.68,4.42c-15.3,0-26.21-2.38-32.7-7.14
			C764.19,177.31,760.03,170.54,758.19,161.77z"/>
		<path class="st0" d="M862.56,61.04h32.82v65.09l23.98-30.34h39.52l-30.06,32l31.79,59.35h-36.18l-16.97-36.62l-12.1,12.88v23.74
			h-32.82V61.04z"/>
	</g>
</g>
</svg>
